<?xml version="1.0" encoding="UTF-8"?>
<svg xmlns="http://www.w3.org/2000/svg" xmlns:xlink="http://www.w3.org/1999/xlink" width="20pt" height="20pt" viewBox="0 0 20 20" version="1.1">
<defs>
<clipPath id="clip1">
  <path d="M 0.789062 0.789062 L 18.1875 0.789062 L 18.1875 18.1875 L 0.789062 18.1875 Z M 0.789062 0.789062 "/>
</clipPath>
</defs>
<g id="surface1">
<g clip-path="url(#clip1)" clip-rule="nonzero">
<path style=" stroke:none;fill-rule:nonzero;fill:rgb(100%,50.196078%,40%);fill-opacity:1;" d="M 2.96875 0.789062 C 1.765625 0.789062 0.789062 1.765625 0.789062 2.96875 L 0.789062 16.015625 C 0.789062 17.210938 1.765625 18.1875 2.96875 18.1875 L 16.015625 18.1875 C 17.210938 18.1875 18.1875 17.210938 18.1875 16.015625 L 18.1875 2.96875 C 18.1875 1.765625 17.210938 0.789062 16.015625 0.789062 Z M 6.609375 5.84375 L 9.488281 8.722656 L 12.363281 5.84375 C 12.574219 5.625 12.921875 5.625 13.136719 5.84375 C 13.347656 6.054688 13.347656 6.398438 13.136719 6.609375 L 10.253906 9.488281 L 13.136719 12.363281 C 13.347656 12.574219 13.347656 12.921875 13.136719 13.136719 C 12.921875 13.347656 12.574219 13.347656 12.363281 13.136719 L 9.488281 10.253906 L 6.609375 13.136719 C 6.398438 13.347656 6.054688 13.347656 5.84375 13.136719 C 5.625 12.921875 5.625 12.574219 5.84375 12.363281 L 8.722656 9.488281 L 5.84375 6.609375 C 5.625 6.398438 5.625 6.054688 5.84375 5.84375 C 6.054688 5.625 6.398438 5.625 6.609375 5.84375 Z M 6.609375 5.84375 "/>
</g>
</g>
</svg>
